<svg width="800" height="800" viewBox="0 0 800 800" fill="none" xmlns="http://www.w3.org/2000/svg">
<g clip-path="url(#clip0_1_19)">
<path d="M58.75 168.75C26.25 166.25 25 232.5 25 265C26.25 325 176.25 446.25 198.75 443.75C215 442.5 233.75 421.25 257.5 425C257.5 425 120 172.5 58.75 168.75Z" fill="black"/>
<path d="M283.75 412.5C250 446.25 275 578.75 305 616.25C375 702.5 575 775 676.25 775C725 775 768.75 751.25 773.75 710C781.25 652.5 733.75 550 671.25 515C578.75 463.75 356.25 336.25 283.75 412.5Z" fill="black"/>
<path d="M92.5 32.5C52.5 67.5 35 185 48.75 235C63.75 288.75 182.5 347.5 213.75 392.5C247.5 440 272.5 562.5 317.5 598.75C398.75 667.5 625 757.5 725 721.25C866.25 668.75 522.5 273.75 390 187.5C312.5 137.5 142.5 -11.25 92.5 32.5Z" fill="black"/>
<path d="M323.75 572.5C358.75 596.25 396.25 616.25 435 633.75C473.75 651.25 513.75 666.25 553.75 677.5C573.75 683.75 595 688.75 615 691.25C635 695 656.25 696.25 676.25 693.75C696.25 691.25 715 683.75 718.75 667.5C723.75 651.25 718.75 631.25 711.25 612.5C708.75 606.25 711.25 600 717.5 597.5C723.75 595 730 597.5 732.5 603.75C736.25 613.75 740 625 741.25 636.25C742.5 647.5 742.5 660 737.5 672.5C732.5 685 722.5 695 711.25 700C700 705 688.75 707.5 677.5 708.75C655 710 633.75 707.5 612.5 703.75C591.25 700 570 693.75 550 686.25C508.75 672.5 470 656.25 431.25 636.25C395 618.75 357.5 597.5 323.75 572.5Z" fill="white"/>
<path d="M187.5 365C283.75 508.75 336.25 525 407.5 550C428.75 557.5 478.75 563.75 497.5 550C517.5 535 520 452.5 520 452.5C520 452.5 617.5 507.5 642.5 488.75C668.75 468.75 530 311.25 530 311.25C530 311.25 567.5 365 552.5 370C475 396.25 416.25 222.5 387.5 186.25C378.75 175 362.5 158.75 348.75 158.75C328.75 157.5 261.25 170 262.5 190C263.75 206.25 301.25 182.5 315 192.5C351.25 220 411.25 321.25 407.5 366.25C405 396.25 347.5 478.75 317.5 483.75C300 487.5 187.5 365 187.5 365Z" fill="white"/>
<path d="M102.5 35C76.25 51.25 87.5 128.75 100 157.5C110 178.75 148.75 213.75 171.25 220C203.75 228.75 302.5 175 302.5 175C302.5 175 367.5 192.5 355 181.25C316.25 142.5 137.5 13.75 102.5 35Z" fill="#A6876C"/>
<path d="M732.5 492.5H730C727.5 492.5 663.75 480 626.25 435C600 403.75 585 367.5 571.25 332.5C551.25 283.75 532.5 236.25 481.25 208.75C457.5 195 430 203.75 430 203.75C423.75 206.25 416.25 202.5 413.75 196.25C411.25 190 415 182.5 421.25 180C422.5 180 458.75 167.5 492.5 186.25C551.25 218.75 572.5 271.25 593.75 322.5C607.5 355 621.25 390 645 418.75C676.25 456.25 733.75 467.5 733.75 467.5C740 468.75 745 475 743.75 482.5C743.75 488.75 738.75 492.5 732.5 492.5Z" fill="black"/>
<path d="M368.75 377.5C366.25 377.5 363.75 376.25 361.25 375C356.25 371.25 355 362.5 358.75 357.5C385 323.75 453.75 283.75 526.25 320C532.5 322.5 535 330 532.5 336.25C530 342.5 522.5 345 516.25 342.5C450 310 393.75 355 378.75 373.75C376.25 375 372.5 377.5 368.75 377.5Z" fill="black"/>
<path d="M341.25 336.25C338.75 336.25 336.25 335 333.75 333.75C328.75 330 327.5 321.25 331.25 316.25C357.5 282.5 426.25 242.5 498.75 278.75C505 281.25 507.5 288.75 505 295C502.5 301.25 495 303.75 488.75 301.25C422.5 268.75 366.25 313.75 351.25 332.5C348.75 333.75 345 336.25 341.25 336.25Z" fill="black"/>
<path d="M312.5 293.75C310 293.75 307.5 292.5 305 291.25C300 287.5 298.75 278.75 302.5 273.75C328.75 240 397.5 200 470 236.25C476.25 238.75 478.75 246.25 476.25 252.5C473.75 258.75 466.25 261.25 460 258.75C393.75 226.25 337.5 271.25 322.5 290C320 292.5 316.25 293.75 312.5 293.75Z" fill="black"/>
<path d="M286.25 261.25C283.75 261.25 281.25 260 278.75 258.75C273.75 255 272.5 246.25 276.25 241.25C302.5 207.5 371.25 167.5 443.75 203.75C450 206.25 452.5 213.75 450 220C447.5 226.25 440 228.75 433.75 226.25C367.5 193.75 311.25 238.75 296.25 257.5C293.75 260 290 261.25 286.25 261.25Z" fill="black"/>
<path d="M258.75 225C256.25 225 253.75 223.75 251.25 222.5C246.25 218.75 245 210 248.75 205C275 171.25 343.75 131.25 416.25 167.5C422.5 170 425 177.5 422.5 183.75C420 190 412.5 192.5 406.25 190C340 157.5 283.75 202.5 268.75 221.25C266.25 223.75 262.5 225 258.75 225Z" fill="black"/>
<path d="M197.5 702.5C151.25 702.5 105 687.5 102.5 686.25C96.25 683.75 92.5 677.5 95 670C97.5 662.5 103.75 660 111.25 662.5C138.75 671.25 220 690 251.25 663.75C287.5 633.75 276.25 587.5 252.5 513.75C230 442.5 206.25 362.5 237.5 280C245 261.25 266.25 191.25 266.25 190C268.75 183.75 275 180 281.25 181.25C287.5 183.75 291.25 190 290 196.25C288.75 198.75 268.75 267.5 261.25 287.5C232.5 362.5 256.25 437.5 277.5 505C298.75 575 320 641.25 267.5 682.5C248.75 698.75 223.75 702.5 197.5 702.5Z" fill="black"/>
<path d="M481.2 25.2C487.867 25.2 492.933 26 496.4 27.6C499.867 29.0667 502.933 30.7333 505.6 32.6C507.2 33.5333 508.467 34.2667 509.4 34.8C510.467 35.2 511.467 35.4 512.4 35.4C513.733 35.4 514.667 34.6667 515.2 33.2C515.867 31.7333 516.4 29.5333 516.8 26.6H521.4C521.267 28.8667 521.067 31.6 520.8 34.8C520.667 37.8667 520.533 42 520.4 47.2C520.4 52.2667 520.4 59 520.4 67.4H515.8C515.4 61 514 54.8667 511.6 49C509.2 43.1333 505.667 38.3333 501 34.6C496.467 30.8667 490.467 29 483 29C475.933 29 470.067 31.1333 465.4 35.4C460.867 39.6667 458.6 45.2667 458.6 52.2C458.6 58.2 460.133 63.2667 463.2 67.4C466.267 71.4 470.333 75.0667 475.4 78.4C480.6 81.6 486.2 85.0667 492.2 88.8C499.133 93.0667 505.267 97.3333 510.6 101.6C516.067 105.733 520.333 110.333 523.4 115.4C526.6 120.467 528.2 126.6 528.2 133.8C528.2 142.333 526.267 149.4 522.4 155C518.533 160.6 513.4 164.8 507 167.6C500.6 170.4 493.533 171.8 485.8 171.8C478.733 171.8 473.133 171 469 169.4C464.867 167.8 461.333 166.133 458.4 164.4C455.467 162.533 453.2 161.6 451.6 161.6C450.267 161.6 449.267 162.333 448.6 163.8C448.067 165.267 447.6 167.467 447.2 170.4H442.6C442.867 167.6 443 164.333 443 160.6C443.133 156.733 443.2 151.733 443.2 145.6C443.333 139.467 443.4 131.733 443.4 122.4H448C448.533 130.4 450 137.867 452.4 144.8C454.933 151.733 458.733 157.333 463.8 161.6C469 165.733 475.867 167.8 484.4 167.8C488.8 167.8 492.933 166.933 496.8 165.2C500.8 163.333 504.067 160.467 506.6 156.6C509.133 152.6 510.4 147.467 510.4 141.2C510.4 135.733 509.067 131 506.4 127C503.867 122.867 500.267 119.067 495.6 115.6C490.933 112 485.467 108.333 479.2 104.6C472.933 100.733 467.067 96.8 461.6 92.8C456.133 88.8 451.733 84.2 448.4 79C445.2 73.6667 443.6 67.2667 443.6 59.8C443.6 51.9333 445.333 45.4667 448.8 40.4C452.4 35.2 457.067 31.4 462.8 29C468.533 26.4667 474.667 25.2 481.2 25.2ZM575.208 12.4V87.2C578.674 78.1333 583.474 71.8667 589.608 68.4C595.874 64.9333 602.408 63.2 609.208 63.2C614.274 63.2 618.474 63.8667 621.808 65.2C625.274 66.5333 628.141 68.4 630.408 70.8C632.941 73.4667 634.741 76.8 635.808 80.8C636.874 84.8 637.408 90.2 637.408 97V150.4C637.408 156 638.541 159.8 640.808 161.8C643.208 163.8 647.141 164.8 652.608 164.8V169C650.341 168.867 646.874 168.733 642.208 168.6C637.541 168.333 633.008 168.2 628.608 168.2C624.208 168.2 619.874 168.333 615.608 168.6C611.474 168.733 608.341 168.867 606.208 169V164.8C611.008 164.8 614.408 163.8 616.408 161.8C618.408 159.8 619.408 156 619.408 150.4V92.6C619.408 88.4667 619.074 84.6667 618.408 81.2C617.741 77.7333 616.208 74.9333 613.808 72.8C611.541 70.6667 608.008 69.6 603.208 69.6C597.741 69.6 592.874 71.1333 588.608 74.2C584.474 77.2667 581.208 81.5333 578.808 87C576.408 92.4667 575.208 98.7333 575.208 105.8V150.4C575.208 156 576.208 159.8 578.208 161.8C580.208 163.8 583.608 164.8 588.408 164.8V169C586.274 168.867 583.074 168.733 578.808 168.6C574.674 168.333 570.408 168.2 566.008 168.2C561.608 168.2 557.074 168.333 552.408 168.6C547.741 168.733 544.274 168.867 542.008 169V164.8C547.474 164.8 551.341 163.8 553.608 161.8C556.008 159.8 557.208 156 557.208 150.4V36.4C557.208 30.4 556.141 26 554.008 23.2C551.874 20.2667 547.874 18.8 542.008 18.8V14.6C546.274 15 550.408 15.2 554.408 15.2C558.274 15.2 561.941 15 565.408 14.6C569.008 14.0667 572.274 13.3333 575.208 12.4ZM728.586 63.2C733.653 63.2 737.853 63.8667 741.186 65.2C744.653 66.5333 747.519 68.4 749.786 70.8C752.319 73.4667 754.119 76.8 755.186 80.8C756.253 84.8 756.786 90.2 756.786 97V150.4C756.786 156 757.919 159.8 760.186 161.8C762.586 163.8 766.519 164.8 771.986 164.8V169C769.719 168.867 766.253 168.733 761.586 168.6C756.919 168.333 752.386 168.2 747.986 168.2C743.586 168.2 739.253 168.333 734.986 168.6C730.853 168.733 727.719 168.867 725.586 169V164.8C730.386 164.8 733.786 163.8 735.786 161.8C737.786 159.8 738.786 156 738.786 150.4V92.6C738.786 88.4667 738.453 84.6667 737.786 81.2C737.119 77.7333 735.586 74.9333 733.186 72.8C730.919 70.6667 727.386 69.6 722.586 69.6C716.986 69.6 712.053 71.2 707.786 74.4C703.653 77.6 700.386 82 697.986 87.6C695.719 93.0667 694.586 99.2 694.586 106V150.4C694.586 156 695.586 159.8 697.586 161.8C699.586 163.8 702.986 164.8 707.786 164.8V169C705.653 168.867 702.453 168.733 698.186 168.6C694.053 168.333 689.786 168.2 685.386 168.2C680.986 168.2 676.453 168.333 671.786 168.6C667.119 168.733 663.653 168.867 661.386 169V164.8C666.853 164.8 670.719 163.8 672.986 161.8C675.386 159.8 676.586 156 676.586 150.4V87.8C676.586 81.8 675.519 77.4 673.386 74.6C671.253 71.6667 667.253 70.2 661.386 70.2V66C665.653 66.4 669.786 66.6 673.786 66.6C677.653 66.6 681.319 66.4 684.786 66C688.386 65.4667 691.653 64.7333 694.586 63.8V87.4C698.053 78.3333 702.853 72.0667 708.986 68.6C715.253 65 721.786 63.2 728.586 63.2Z" fill="black"/>
</g>
<defs>
<clipPath id="clip0_1_19">
<rect width="800" height="800" fill="white"/>
</clipPath>
</defs>
</svg>
